<?xml version="1.0" standalone="no"?>
<!DOCTYPE svg PUBLIC "-//W3C//DTD SVG 20010904//EN"
 "http://www.w3.org/TR/2001/REC-SVG-20010904/DTD/svg10.dtd">
<svg version="1.0" xmlns="http://www.w3.org/2000/svg"
 width="1600.000000pt" height="1600.000000pt" viewBox="0 0 1600.000000 1600.000000"
 preserveAspectRatio="xMidYMid meet">

<g transform="translate(0.000000,1600.000000) scale(0.100000,-0.100000)"
fill="#000000" stroke="none">
<path d="M11057 13760 c-506 -46 -822 -241 -1016 -628 -177 -353 -226 -728
-248 -1896 -10 -512 -10 -5954 0 -6471 18 -989 55 -1376 158 -1678 181 -535
501 -789 1068 -847 367 -37 722 33 947 188 305 209 487 585 564 1170 43 321
43 328 47 1870 l4 1482 -420 0 -420 0 -4 -1492 c-4 -1601 -5 -1632 -57 -1901
-53 -277 -151 -447 -297 -515 -52 -24 -69 -27 -168 -27 -104 0 -114 2 -176 32
-184 91 -307 337 -348 698 -51 443 -71 1640 -71 4250 0 2792 20 3883 81 4325
42 303 164 541 318 619 94 48 236 62 351 35 84 -19 136 -50 196 -117 99 -108
164 -290 204 -569 41 -280 42 -339 47 -1810 l5 -1428 430 0 430 0 -5 1368 c-6
1514 -7 1569 -69 1997 -89 624 -278 994 -609 1189 -66 39 -190 90 -274 111
-163 42 -472 62 -668 45z"/>
<path d="M5030 8588 c0 -4287 -3 -5097 -14 -5173 -23 -148 -60 -237 -129 -312
-80 -87 -212 -127 -349 -104 -179 29 -285 133 -350 341 l-23 75 -3 2598 -2
2597 -415 0 -415 0 0 -2549 c0 -1664 4 -2585 10 -2652 58 -581 315 -953 762
-1102 256 -86 594 -100 864 -37 486 113 764 424 877 980 l21 105 3 5158 3
5157 -420 0 -420 0 0 -5082z"/>
<path d="M6570 8001 l0 -5671 415 0 415 0 0 2615 0 2615 135 0 c131 0 135 -1
140 -22 3 -13 32 -174 65 -358 33 -184 64 -357 69 -385 5 -27 53 -293 106
-590 137 -767 282 -1571 305 -1700 11 -60 63 -348 115 -640 52 -291 99 -555
105 -585 6 -30 44 -244 85 -475 42 -231 78 -432 81 -448 l6 -27 419 0 c230 0
419 4 419 8 0 6 -19 109 -95 522 -7 41 -32 174 -55 295 -23 121 -45 243 -50
270 -5 28 -34 183 -64 345 -30 162 -77 418 -105 567 -28 150 -73 393 -101 540
-54 293 -150 813 -236 1273 -67 358 -136 731 -204 1105 -28 154 -54 287 -59
295 -4 8 -41 26 -82 40 -41 15 -122 44 -181 64 l-108 38 0 87 0 88 113 22
c538 106 902 456 1065 1026 101 351 132 774 132 1810 0 1310 -43 1666 -246
2053 -257 490 -630 763 -1179 863 -114 21 -155 22 -772 26 l-653 5 0 -5671z
m1178 4868 c133 -14 202 -33 300 -81 138 -67 293 -230 375 -393 126 -251 165
-750 154 -1965 -6 -627 -14 -838 -43 -1048 -39 -289 -127 -494 -283 -655 -81
-84 -137 -126 -229 -171 -126 -63 -203 -78 -424 -83 l-198 -5 0 2206 0 2206
125 0 c69 0 169 -5 223 -11z"/>
</g>
</svg>
